<svg width="126" height="83" viewBox="0 0 126 83" fill="none" xmlns="http://www.w3.org/2000/svg">
<path fill-rule="evenodd" clip-rule="evenodd" d="M0 11.3C0 8.30305 1.34857 5.42885 3.74903 3.30969C6.1495 1.19053 9.40523 0 12.8 0H115.2C118.595 0 121.851 1.19053 124.251 3.30969C126.651 5.42885 128 8.30305 128 11.3V71.5667C128 74.5636 126.651 77.4378 124.251 79.557C121.851 81.6761 118.595 82.8667 115.2 82.8667H12.8C9.40523 82.8667 6.1495 81.6761 3.74903 79.557C1.34857 77.4378 0 74.5636 0 71.5667L0 11.3ZM25.6 30.1333C25.6 26.1374 27.3981 22.3051 30.5987 19.4796C33.7993 16.654 38.1403 15.0667 42.6667 15.0667C47.193 15.0667 51.534 16.654 54.7346 19.4796C57.9352 22.3051 59.7333 26.1374 59.7333 30.1333C59.7333 34.1293 57.9352 37.9615 54.7346 40.7871C51.534 43.6126 47.193 45.2 42.6667 45.2C38.1403 45.2 33.7993 43.6126 30.5987 40.7871C27.3981 37.9615 25.6 34.1293 25.6 30.1333ZM102.4 30.1333H76.8V22.6H102.4V30.1333ZM102.4 52.7333H76.8V45.2H102.4V52.7333ZM42.6667 52.7333C38.0281 52.7333 33.4812 53.8736 29.5354 56.0264C25.5896 58.1793 22.4008 61.2596 20.3264 64.9223L17.5104 69.8792C17.1841 70.454 17.0299 71.093 17.0626 71.7353C17.0952 72.3777 17.3135 73.0019 17.6967 73.5487C18.0799 74.0954 18.6153 74.5465 19.2519 74.8589C19.8885 75.1713 20.605 75.3346 21.3333 75.3333H64C64.7276 75.3333 65.4431 75.169 66.0785 74.8561C66.7139 74.5432 67.2481 74.092 67.6303 73.5455C68.0126 72.9989 68.2301 72.3751 68.2623 71.7335C68.2946 71.0918 68.1404 70.4535 67.8144 69.8792L65.0069 64.9223C62.9325 61.2596 59.7437 58.1793 55.7979 56.0264C51.8521 53.8736 47.3052 52.7333 42.6667 52.7333Z" fill="white"/>
</svg>
