<svg width="127" height="113" viewBox="0 0 127 113" fill="none" xmlns="http://www.w3.org/2000/svg">
<path d="M5.62341 98.875H72.5242C75.5999 98.875 78.1029 96.4985 78.1029 93.5781V26.4844C78.1029 26.4032 78.0658 26.3325 78.0546 26.2548C78.0442 26.1808 78.0281 26.1076 78.0062 26.0359C77.9334 25.7349 77.7767 25.4581 77.5525 25.2343L51.5219 0.519094C51.227 0.254529 50.85 0.0873453 50.4471 0.042375C50.369 0.0353125 50.2946 0 50.209 0H5.6011C2.51417 0 0 2.37653 0 5.29688V93.5781C0 96.4985 2.52161 98.875 5.62341 98.875ZM52.0686 6.02784L71.7543 24.7188H53.9282C53.435 24.7188 52.962 24.5327 52.6133 24.2016C52.2645 23.8705 52.0686 23.4214 52.0686 22.9531V6.02784ZM3.71919 5.29688C3.71919 4.32225 4.56344 3.53125 5.6011 3.53125H48.3494V22.9531C48.3494 25.8735 50.8525 28.25 53.9282 28.25H74.3838V93.5781C74.3838 94.0464 74.1878 94.4955 73.8391 94.8266C73.4903 95.1577 73.0174 95.3438 72.5242 95.3438H5.62341C5.37627 95.3465 5.13097 95.3031 4.90152 95.2159C4.67206 95.1287 4.46295 94.9994 4.28613 94.8354C4.1093 94.6715 3.96822 94.476 3.87094 94.2603C3.77367 94.0446 3.7221 93.8128 3.71919 93.5781V5.29688Z" fill="white"/>
<path d="M16.7356 42.375H61.3658C61.859 42.375 62.332 42.189 62.6808 41.8579C63.0295 41.5267 63.2254 41.0776 63.2254 40.6094C63.2254 40.1411 63.0295 39.692 62.6808 39.3609C62.332 39.0298 61.859 38.8438 61.3658 38.8438H16.7356C16.2424 38.8438 15.7694 39.0298 15.4206 39.3609C15.0719 39.692 14.876 40.1411 14.876 40.6094C14.876 41.0776 15.0719 41.5267 15.4206 41.8579C15.7694 42.189 16.2424 42.375 16.7356 42.375ZM16.7356 56.5H61.3658C61.859 56.5 62.332 56.314 62.6808 55.9829C63.0295 55.6517 63.2254 55.2026 63.2254 54.7344C63.2254 54.2661 63.0295 53.817 62.6808 53.4859C62.332 53.1548 61.859 52.9688 61.3658 52.9688H16.7356C16.2424 52.9688 15.7694 53.1548 15.4206 53.4859C15.0719 53.817 14.876 54.2661 14.876 54.7344C14.876 55.2026 15.0719 55.6517 15.4206 55.9829C15.7694 56.314 16.2424 56.5 16.7356 56.5ZM16.7356 28.25H35.3315C35.8247 28.25 36.2977 28.064 36.6464 27.7329C36.9952 27.4017 37.1911 26.9526 37.1911 26.4844C37.1911 26.0161 36.9952 25.567 36.6464 25.2359C36.2977 24.9048 35.8247 24.7188 35.3315 24.7188H16.7356C16.2424 24.7188 15.7694 24.9048 15.4206 25.2359C15.0719 25.567 14.876 26.0161 14.876 26.4844C14.876 26.9526 15.0719 27.4017 15.4206 27.7329C15.7694 28.064 16.2424 28.25 16.7356 28.25ZM16.7356 70.625H61.3658C61.859 70.625 62.332 70.439 62.6808 70.1079C63.0295 69.7767 63.2254 69.3276 63.2254 68.8594C63.2254 68.3911 63.0295 67.942 62.6808 67.6109C62.332 67.2798 61.859 67.0938 61.3658 67.0938H16.7356C16.2424 67.0938 15.7694 67.2798 15.4206 67.6109C15.0719 67.942 14.876 68.3911 14.876 68.8594C14.876 69.3276 15.0719 69.7767 15.4206 70.1079C15.7694 70.439 16.2424 70.625 16.7356 70.625ZM16.7356 84.75H61.3658C61.859 84.75 62.332 84.564 62.6808 84.2329C63.0295 83.9017 63.2254 83.4526 63.2254 82.9844C63.2254 82.5161 63.0295 82.067 62.6808 81.7359C62.332 81.4048 61.859 81.2188 61.3658 81.2188H16.7356C16.2424 81.2188 15.7694 81.4048 15.4206 81.7359C15.0719 82.067 14.876 82.5161 14.876 82.9844C14.876 83.4526 15.0719 83.9017 15.4206 84.2329C15.7694 84.564 16.2424 84.75 16.7356 84.75Z" fill="white"/>
<path d="M79.9627 17.6562H96.6991V37.0781C96.6991 39.9985 99.2021 42.375 102.278 42.375H122.733V107.703C122.733 108.171 122.537 108.62 122.189 108.952C121.84 109.283 121.367 109.469 120.874 109.469H53.973C53.7259 109.472 53.4806 109.428 53.2511 109.341C53.0217 109.254 52.8126 109.124 52.6357 108.96C52.4589 108.796 52.3178 108.601 52.2206 108.385C52.1233 108.17 52.0717 107.938 52.0688 107.703V104.172C52.0688 103.704 51.8729 103.255 51.5241 102.923C51.1754 102.592 50.7024 102.406 50.2092 102.406C49.716 102.406 49.243 102.592 48.8943 102.923C48.5455 103.255 48.3496 103.704 48.3496 104.172V107.703C48.3496 110.623 50.8712 113 53.973 113H120.874C123.95 113 126.453 110.623 126.453 107.703V40.6094C126.453 40.5282 126.415 40.4575 126.404 40.3798C126.394 40.3058 126.378 40.2326 126.356 40.1609C126.283 39.8599 126.126 39.5831 125.902 39.3593L99.8715 14.6441C99.5786 14.3773 99.2004 14.2108 98.7967 14.1709C98.7186 14.1603 98.6442 14.125 98.5586 14.125H79.9627C79.4695 14.125 78.9965 14.311 78.6478 14.6421C78.299 14.9733 78.1031 15.4224 78.1031 15.8906C78.1031 16.3589 78.299 16.808 78.6478 17.1391C78.9965 17.4702 79.4695 17.6562 79.9627 17.6562ZM102.278 38.8438C101.785 38.8438 101.312 38.6577 100.963 38.3266C100.614 37.9955 100.418 37.5464 100.418 37.0781V20.1528L120.104 38.8438H102.278Z" fill="white"/>
<path d="M87.4006 56.5H109.716C110.209 56.5 110.682 56.314 111.031 55.9829C111.379 55.6517 111.575 55.2026 111.575 54.7344C111.575 54.2661 111.379 53.817 111.031 53.4859C110.682 53.1548 110.209 52.9688 109.716 52.9688H87.4006C86.9074 52.9688 86.4344 53.1548 86.0857 53.4859C85.7369 53.817 85.541 54.2661 85.541 54.7344C85.541 55.2026 85.7369 55.6517 86.0857 55.9829C86.4344 56.314 86.9074 56.5 87.4006 56.5ZM87.4006 70.625H109.716C110.209 70.625 110.682 70.439 111.031 70.1079C111.379 69.7767 111.575 69.3276 111.575 68.8594C111.575 68.3911 111.379 67.942 111.031 67.6109C110.682 67.2798 110.209 67.0938 109.716 67.0938H87.4006C86.9074 67.0938 86.4344 67.2798 86.0857 67.6109C85.7369 67.942 85.541 68.3911 85.541 68.8594C85.541 69.3276 85.7369 69.7767 86.0857 70.1079C86.4344 70.439 86.9074 70.625 87.4006 70.625ZM87.4006 84.75H109.716C110.209 84.75 110.682 84.564 111.031 84.2329C111.379 83.9017 111.575 83.4526 111.575 82.9844C111.575 82.5161 111.379 82.067 111.031 81.7359C110.682 81.4048 110.209 81.2188 109.716 81.2188H87.4006C86.9074 81.2188 86.4344 81.4048 86.0857 81.7359C85.7369 82.067 85.541 82.5161 85.541 82.9844C85.541 83.4526 85.7369 83.9017 86.0857 84.2329C86.4344 84.564 86.9074 84.75 87.4006 84.75ZM87.4006 98.875H109.716C110.209 98.875 110.682 98.689 111.031 98.3579C111.379 98.0267 111.575 97.5776 111.575 97.1094C111.575 96.6411 111.379 96.192 111.031 95.8609C110.682 95.5298 110.209 95.3438 109.716 95.3438H87.4006C86.9074 95.3438 86.4344 95.5298 86.0857 95.8609C85.7369 96.192 85.541 96.6411 85.541 97.1094C85.541 97.5776 85.7369 98.0267 86.0857 98.3579C86.4344 98.689 86.9074 98.875 87.4006 98.875Z" fill="white"/>
</svg>
