<svg width="149" height="30" viewBox="0 0 149 30" fill="none" xmlns="http://www.w3.org/2000/svg">
<path d="M17.313 14.6C18.9397 14.9467 20.2463 15.76 21.233 17.04C22.2197 18.2933 22.713 19.7333 22.713 21.36C22.713 23.7067 21.8863 25.5733 20.233 26.96C18.6063 28.32 16.3263 29 13.393 29H0.313008V0.919999H12.953C15.8063 0.919999 18.033 1.57333 19.633 2.88C21.2597 4.18667 22.073 5.96 22.073 8.2C22.073 9.85333 21.633 11.2267 20.753 12.32C19.8997 13.4133 18.753 14.1733 17.313 14.6ZM7.15301 12.28H11.633C12.753 12.28 13.6063 12.04 14.193 11.56C14.8063 11.0533 15.113 10.32 15.113 9.36C15.113 8.4 14.8063 7.66667 14.193 7.16C13.6063 6.65333 12.753 6.4 11.633 6.4H7.15301V12.28ZM12.193 23.48C13.3397 23.48 14.2197 23.2267 14.833 22.72C15.473 22.1867 15.793 21.4267 15.793 20.44C15.793 19.4533 15.4597 18.68 14.793 18.12C14.153 17.56 13.2597 17.28 12.113 17.28H7.15301V23.48H12.193ZM33.4002 0.919999V17.72C33.4002 19.4 33.8135 20.6933 34.6402 21.6C35.4669 22.5067 36.6802 22.96 38.2802 22.96C39.8802 22.96 41.1069 22.5067 41.9602 21.6C42.8135 20.6933 43.2402 19.4 43.2402 17.72V0.919999H50.0802V17.68C50.0802 20.1867 49.5469 22.3067 48.4802 24.04C47.4135 25.7733 45.9735 27.08 44.1602 27.96C42.3735 28.84 40.3735 29.28 38.1602 29.28C35.9469 29.28 33.9602 28.8533 32.2002 28C30.4669 27.12 29.0935 25.8133 28.0802 24.08C27.0669 22.32 26.5602 20.1867 26.5602 17.68V0.919999H33.4002ZM78.9633 0.919999L69.2433 19.72V29H62.4033V19.72L52.6833 0.919999H60.4433L65.8833 12.68L71.2833 0.919999H78.9633Z" fill="#69A543"/>
<path d="M99.1993 24.04H88.7193L87.0393 29H79.8793L90.0393 0.919999H97.9593L108.119 29H100.879L99.1993 24.04ZM97.4393 18.76L93.9593 8.48L90.5193 18.76H97.4393ZM136.331 29H129.491L118.051 11.68V29H111.211V0.919999H118.051L129.491 18.32V0.919999H136.331V29ZM148.13 0.919999V29H141.29V0.919999H148.13Z" fill="#F39634"/>
</svg>
