<svg width="27" height="26" viewBox="0 0 27 26" fill="none" xmlns="http://www.w3.org/2000/svg">
<path d="M13.4997 0.333313C15.1794 0.333313 16.7903 1.00057 17.978 2.1883C19.1657 3.37603 19.833 4.98694 19.833 6.66665C19.833 8.34635 19.1657 9.95726 17.978 11.145C16.7903 12.3327 15.1794 13 13.4997 13C11.82 13 10.2091 12.3327 9.02133 11.145C7.8336 9.95726 7.16634 8.34635 7.16634 6.66665C7.16634 4.98694 7.8336 3.37603 9.02133 2.1883C10.2091 1.00057 11.82 0.333313 13.4997 0.333313ZM13.4997 16.1666C20.498 16.1666 26.1663 19.0008 26.1663 22.5V25.6666H0.833008V22.5C0.833008 19.0008 6.50134 16.1666 13.4997 16.1666Z" fill="black"/>
</svg>
